<svg width="15" height="15" viewBox="0 0 15 15" fill="none" xmlns="http://www.w3.org/2000/svg">
<path d="M6.29688 14.3281C6.71094 14.3281 7.03125 14.1562 7.25781 13.8203L14.6016 2.38281C14.7656 2.125 14.8359 1.90625 14.8359 1.69531C14.8359 1.14062 14.4453 0.757812 13.8828 0.757812C13.5 0.757812 13.2656 0.898438 13.0312 1.26562L6.25781 12.0078L2.78125 7.54688C2.54688 7.24219 2.30469 7.11719 1.96094 7.11719C1.39844 7.11719 0.992188 7.51562 0.992188 8.0625C0.992188 8.30469 1.07812 8.53906 1.28125 8.78125L5.32812 13.8281C5.60156 14.1719 5.89062 14.3281 6.29688 14.3281Z" fill="#3FB4F5"/>
</svg>
